<?xml version="1.0" encoding="utf-8"?>
<!-- Generator: Adobe Illustrator 19.0.0, SVG Export Plug-In . SVG Version: 6.00 Build 0)  -->
<svg version="1.1" id="Layer_1" xmlns="http://www.w3.org/2000/svg" xmlns:xlink="http://www.w3.org/1999/xlink" x="0px" y="0px"
	 viewBox="-219 303.2 392.1 177.3" style="enable-background:new -219 303.2 392.1 177.3;" xml:space="preserve">
<style type="text/css">
	.st0{fill:#FF6600;}
	.st1{fill:#E74030;}
	.st2{fill:#FAB418;}
	.st3{fill:#DE0732;}
	.st4{fill:#DE0733;}
	.st5{fill:#CC1D46;}
	.st6{fill:#23282C;}
</style>
<g>
	<g>
		<path class="st0" d="M-125,354.8l-42.3-51.2c-0.9-0.9-2.4-0.4-2.4,0.9l3.6,49.6l-30.7-26.3c-0.9-0.9-2.4,0-2.2,1.3l12.2,49
			l-29.6-17.4c-1.1-0.7-2.4,0.4-2,1.8l51.9,117.1c0.4,1.1,2.2,0.9,2.4-0.2l11.4-60.1l28.9-49C-121,365.5-121.4,359.3-125,354.8
			L-125,354.8z"/>
		<path class="st1" d="M-166.4,354.2l-30.9-26.3c-0.9-0.9-2.4,0-2.2,1.3l12.2,49L-164,392L-166.4,354.2L-166.4,354.2z"/>
		<path class="st2" d="M-166,453.7c-0.4,1.3-2.2,1.1-2.4-0.2l-18.7-75.2l-29.8-17.6c-1.1-0.7-2.4,0.4-2,1.8l51.9,117.1
			c0.4,1.1,2.2,0.9,2.4-0.2l11.4-60.1l-0.2,0.2L-166,453.7L-166,453.7z"/>
		<path class="st3" d="M-166,453.7l12.9-34.3l-5.8,9.6c-0.7,1.1-2.4,0.7-2.4-0.7l-2.4-36.3l-23.4-13.8l18.7,75.2
			C-168.2,454.8-166.4,455-166,453.7"/>
		<path class="st0" d="M-125.4,354.8l-42.3-51.2c-0.7-0.9-2.2-0.2-2.2,0.9l3.6,49.6l21.4,18.5c4.2,3.6,5.8,9.6,3.8,14.9l-11.8,31.2
			v0.4l28.9-49C-121.2,365.5-121.9,359.3-125.4,354.8"/>
		<path class="st4" d="M-157.7,395.8c4.9,2.9,7.3,8.5,6.5,14l-1.8,9.1l11.8-31.2c2-5.3,0.4-11.1-3.8-14.9l-21.4-18.5l2.7,37.8
			L-157.7,395.8L-157.7,395.8z"/>
		<path d="M-153.3,419.6l0.2-0.4v-0.4"/>
		<path d="M-153.3,419.6l0.2-0.4v-0.4"/>
		<path class="st5" d="M-157.7,395.8l-6.2-3.8l2.4,36.3c0,1.3,1.8,1.8,2.4,0.7l5.6-9.6l0.2-0.7l1.8-9.1
			C-150.2,404.3-152.8,398.7-157.7,395.8"/>
		<path class="st6" d="M-92.9,420.3h25.4l-12.7-33.8C-80.3,386.2-92.9,420.3-92.9,420.3z M-80.9,373.5h2c2.7,0,5.1,1.6,6,4.2
			l29.8,76.1H-52c-1.6,0-3.1-1.1-3.6-2.4l-8.2-21.4h-32.7l-8,21.4c-0.7,1.6-2,2.4-3.6,2.4h-8.7l29.6-76.1
			C-86,375.3-83.6,373.5-80.9,373.5L-80.9,373.5z"/>
		<path class="st6" d="M79.4,453.9h10.9v-80.1H79.4 M120.8,391.3v62.6h-10v-80.1h6.5c2,0,4,1.1,5.3,2.7l40.5,57v-59.9h10v80.4h-4.9
			c-2.2,0-4.2-1.1-5.3-2.7L120.8,391.3L120.8,391.3z M40,453.9h-9.1l-21.6-65l-21.6,65h-9.1l-24-80.1h8.7c1.8,0,3.3,1.1,3.8,2.9
			l16.7,59.7L3,376.9c0.7-2,2.4-3.3,4.7-3.3h3.8c2.2,0,4,1.3,4.7,3.3l19.4,59.4l16.7-59.9c0.4-1.8,2-2.9,3.8-2.9h8.5L40,453.9
			L40,453.9z"/>
	</g>
</g>
</svg>
