<?xml version="1.0" encoding="UTF-8"?>
<svg id="Layer_1" xmlns="http://www.w3.org/2000/svg" viewBox="55 30 490 102">
	<defs>
		<style>
			.cls-1{fill:#283c43;}.cls-2{fill:#09c;}
		</style>
	</defs>
	<g>
		<path class="cls-2" d="M148.56,64.93h-15.19v-6.67h37.78v6.67h-15.13v39.56h-7.46v-39.56Z" />
		<path class="cls-2" d="M173.41,71.93l.46,4.29c1.89-3.35,5.09-5.02,9.58-5.02,3.3,0,5.99,.92,8.06,2.77l-3.1,5.94c-1.63-1.32-3.55-1.98-5.75-1.98-2.51,0-4.6,.77-6.28,2.31-1.67,1.54-2.51,3.74-2.51,6.61v17.64h-6.8v-32.56h6.34Z" />
		<path class="cls-2" d="M220.39,71.93h6.61v32.56h-6.47l-.33-5.28c-.97,1.98-2.53,3.5-4.69,4.56-2.16,1.06-4.34,1.59-6.54,1.59-4.93,0-8.95-1.51-12.05-4.52-3.1-3.02-4.66-7.23-4.66-12.65s1.6-9.43,4.79-12.45c3.19-3.02,7.21-4.52,12.05-4.52,2.38,0,4.57,.52,6.57,1.55,2,1.03,3.51,2.48,4.52,4.33l.2-5.15Zm-10.77,5.48c-3,0-5.51,.99-7.53,2.97-2.03,1.98-3.04,4.58-3.04,7.79s1.01,5.88,3.04,7.86c2.02,1.98,4.53,2.97,7.53,2.97,3.35,0,5.94-1.07,7.79-3.2,1.85-2.14,2.77-4.68,2.77-7.63s-.92-5.43-2.77-7.56c-1.85-2.14-4.45-3.2-7.79-3.2Z" />
		<path class="cls-2" d="M267.06,58.32v46.17h-6.41l-.4-5.15c-2.38,3.88-6.14,5.81-11.29,5.81-4.89,0-8.88-1.51-11.99-4.52-3.1-3.02-4.66-7.17-4.66-12.45s1.53-9.54,4.59-12.52c3.06-2.97,7.03-4.46,11.92-4.46,2.2,0,4.41,.52,6.64,1.55,2.22,1.03,3.82,2.46,4.79,4.26v-18.69h6.8Zm-17.64,19.29c-2.99,0-5.46,.96-7.4,2.87-1.94,1.92-2.91,4.48-2.91,7.69s.97,5.79,2.91,7.73c1.94,1.94,4.4,2.91,7.4,2.91s5.31-.99,7.33-2.97c2.02-1.98,3.04-4.53,3.04-7.66s-1.01-5.61-3.04-7.6c-2.03-1.98-4.47-2.97-7.33-2.97Z" />
		<path class="cls-2" d="M279.45,90.88c.31,2.51,1.41,4.5,3.3,5.98,1.89,1.48,4.34,2.21,7.33,2.21,1.8,0,3.59-.31,5.35-.92,1.76-.62,3.13-1.47,4.1-2.58l4.42,4.29c-1.63,1.81-3.71,3.18-6.24,4.13-2.53,.95-5.12,1.42-7.76,1.42-5.33,0-9.59-1.56-12.78-4.69-3.19-3.13-4.79-7.31-4.79-12.55s1.59-9.05,4.76-12.22c3.17-3.17,7.29-4.76,12.35-4.76s9.03,1.43,12.02,4.29c2.99,2.86,4.49,7.02,4.49,12.48,0,.62-.04,1.59-.13,2.91h-26.42Zm19.88-5.75c-.22-2.55-1.18-4.5-2.87-5.85-1.7-1.34-3.95-2.01-6.77-2.01-2.6,0-4.8,.67-6.61,2.01-1.81,1.34-2.97,3.29-3.5,5.85h19.75Z" />
		<path class="cls-2" d="M345.57,58.32v46.17h-6.41l-.4-5.15c-2.38,3.88-6.14,5.81-11.29,5.81-4.89,0-8.88-1.51-11.99-4.52-3.1-3.02-4.66-7.17-4.66-12.45s1.53-9.54,4.59-12.52c3.06-2.97,7.03-4.46,11.92-4.46,2.2,0,4.41,.52,6.64,1.55,2.22,1.03,3.82,2.46,4.79,4.26v-18.69h6.8Zm-17.64,19.29c-3,0-5.46,.96-7.4,2.87-1.94,1.92-2.91,4.48-2.91,7.69s.97,5.79,2.91,7.73c1.94,1.94,4.4,2.91,7.4,2.91s5.31-.99,7.33-2.97,3.04-4.53,3.04-7.66-1.01-5.61-3.04-7.6-4.47-2.97-7.33-2.97Z" />
		<path class="cls-2" d="M355.48,76.12c3.1-3.24,7.14-4.85,12.12-4.85s9.04,1.62,12.19,4.85c3.15,3.24,4.72,7.28,4.72,12.12s-1.55,8.99-4.66,12.19c-3.1,3.19-7.19,4.79-12.25,4.79s-9.13-1.6-12.19-4.79c-3.06-3.19-4.59-7.25-4.59-12.19s1.55-8.88,4.66-12.12Zm12.12,1.42c-3,0-5.41,1.04-7.23,3.1-1.83,2.07-2.74,4.6-2.74,7.6s.91,5.52,2.74,7.56c1.83,2.05,4.24,3.07,7.23,3.07s5.47-1.02,7.3-3.07c1.83-2.05,2.74-4.57,2.74-7.56s-.94-5.47-2.81-7.56c-1.87-2.09-4.28-3.14-7.23-3.14Z" />
		<path class="cls-2" d="M397.01,72.06v17.57c0,2.86,.77,5.14,2.31,6.84,1.54,1.7,3.72,2.54,6.54,2.54,2.64,0,4.81-.95,6.51-2.84,1.69-1.89,2.54-4.23,2.54-7v-17.11h6.8v32.5h-6.14l-.4-4.56c-3.04,3.52-6.78,5.28-11.23,5.28-4.09,0-7.41-1.39-9.94-4.16-2.53-2.77-3.8-6.58-3.8-11.43v-17.64h6.8Z" />
		<path class="cls-2" d="M433.88,58.32v18.69c.97-1.8,2.56-3.23,4.79-4.26,2.22-1.03,4.44-1.55,6.64-1.55,4.84,0,8.81,1.49,11.89,4.46s4.62,7.15,4.62,12.52-1.55,9.43-4.66,12.45c-3.11,3.02-7.1,4.52-11.99,4.52-5.15,0-8.92-1.94-11.29-5.81l-.4,5.15h-6.41V58.32h6.8Zm18.16,22.16c-1.98-1.92-4.43-2.87-7.33-2.87s-5.37,.99-7.4,2.97-3.04,4.51-3.04,7.6,1,5.68,3.01,7.66c2,1.98,4.48,2.97,7.43,2.97s5.35-.97,7.33-2.91c1.98-1.94,2.97-4.51,2.97-7.73s-.99-5.78-2.97-7.69Z" />
		<path class="cls-2" d="M474.21,58.32v46.17h-6.8V58.32h6.8Z" />
		<path class="cls-2" d="M486.87,90.88c.31,2.51,1.41,4.5,3.3,5.98,1.89,1.48,4.34,2.21,7.33,2.21,1.8,0,3.59-.31,5.35-.92,1.76-.62,3.13-1.47,4.1-2.58l4.42,4.29c-1.63,1.81-3.71,3.18-6.24,4.13-2.53,.95-5.12,1.42-7.76,1.42-5.33,0-9.59-1.56-12.78-4.69-3.19-3.13-4.79-7.31-4.79-12.55s1.59-9.05,4.75-12.22c3.17-3.17,7.29-4.76,12.35-4.76s9.03,1.43,12.02,4.29c2.99,2.86,4.49,7.02,4.49,12.48,0,.62-.04,1.59-.13,2.91h-26.42Zm19.88-5.75c-.22-2.55-1.18-4.5-2.87-5.85-1.7-1.34-3.95-2.01-6.77-2.01-2.6,0-4.8,.67-6.61,2.01-1.81,1.34-2.97,3.29-3.5,5.85h19.75Z" />
		<path class="cls-2" d="M525.59,71.93l.46,4.29c1.89-3.35,5.09-5.02,9.58-5.02,3.3,0,5.99,.92,8.06,2.77l-3.1,5.94c-1.63-1.32-3.55-1.98-5.75-1.98-2.51,0-4.6,.77-6.27,2.31-1.67,1.54-2.51,3.74-2.51,6.61v17.64h-6.8v-32.56h6.34Z" />
	</g>
	<g>
		<path class="cls-2" d="M87.87,58.23c-.8-.04-1.49-.08-2.09-.14h-28.5v8.61h15.41v28.22h8.61v-28.22h9.41c2.73,0,5.34,.72,7.64,2.06-.61-3.32-2.8-10.18-10.48-10.53Z" />
		<path class="cls-1" d="M112.68,72.78c-1.2-2.9-2.94-5.5-5.16-7.72-2.22-2.22-4.82-3.96-7.72-5.16-1.79-.74-3.64-1.26-5.54-1.54,2.24,1.47,6.09,5,6.34,12.02,.28,.25,.56,.5,.83,.77,2.87,2.87,4.45,6.68,4.45,10.73s-1.58,7.87-4.45,10.73c-2.87,2.87-6.68,4.45-10.73,4.45h-18.02v8.61h18.02c3.14,0,6.2-.61,9.1-1.81,2.9-1.2,5.5-2.94,7.72-5.16,2.22-2.22,3.96-4.82,5.16-7.72,1.2-2.9,1.81-5.96,1.81-9.1,0-3.14-.61-6.2-1.81-9.1Z" />
	</g>
</svg>
