<?xml version="1.0" encoding="utf-8"?>
<!-- Generator: Adobe Illustrator 19.2.1, SVG Export Plug-In . SVG Version: 6.00 Build 0)  -->
<svg version="1.1" id="layer" xmlns="http://www.w3.org/2000/svg" xmlns:xlink="http://www.w3.org/1999/xlink" x="0px" y="0px"
	 viewBox="0 0 652 652" style="enable-background:new 0 0 652 652;" xml:space="preserve">
<style type="text/css">
	.st0{fill:#BF0000;}
</style>
<path class="st0" d="M502.9,382.3H140.6l28.8,28.8L502.9,382.3z M174.4,265.7v4.5c-6.8-4.5-12.6-6.8-21.2-6.8c-25.2,0-45,23-45,51.8
	c0,28.4,19.4,51.8,45,51.8c8.1,0,14.4-2.7,21.2-6.8v4.5h22.5v-99C196.9,265.7,174.4,265.7,174.4,265.7z M153.2,342.7
	c-12.6,0-21.6-12.2-21.6-27.9s9-27.9,21.6-27.9s21.2,12.2,21.2,27.9C174.4,330,165.4,342.7,153.2,342.7z M353.1,265.7v57.6
	c0,10.8-7.7,19.8-18.5,19.8s-18.5-9-18.5-19.8v-57.6h-22.5v57.6c0,23.9,16.2,43.2,40.1,43.2c10.8,0,19.4-6.3,19.4-6.3v3.6h22.5
	v-98.1H353.1L353.1,265.7z M561,363.8v-57.6c0-10.8,7.7-19.8,18.5-19.8s18.5,9,18.5,19.8v57.6h22.5v-57.6
	c0-23.9-16.2-43.2-40.1-43.2c-10.8,0-19.4,6.3-19.4,6.3v-3.6h-22.5v98.1H561L561,363.8z"/>
<path class="st0" d="M44.3,363.8v-38.3h16.2l28.8,38.3h29.3l-34.7-45.9c10.8-7.7,17.6-20.3,17.6-34.7c0-23.4-19.4-42.3-42.3-42.3
	H20.4v122.9H44.3z M44.3,264.3h15.3c10.4,0,19.4,8.6,19.4,19.4c0,10.4-8.6,19.4-19.4,19.4H44.3C44.3,303,44.3,264.3,44.3,264.3z
	 M435.4,340.8c-2.3,1.4-4.5,2.7-7.7,2.7c-3.6,0-10.4-2.7-10.4-11.7v-42.8h19.4v-23.9h-19.4v-24.8h-22.5v24.8h-11.7v23.4h11.7v42.3
	c0,22.1,16.7,35.1,33.3,35.1c6.3,0,14.9-2.3,21.6-6.3L435.4,340.8L435.4,340.8z M251.8,311.6l38.3-45.9H259l-27,34.2v-67.1h-23v131
	h23v-40.5l33.3,40.5h31.1L251.8,311.6z"/>
<path class="st0" d="M487.2,263c-26.1,0-44.6,23-44.6,51.8c0,30.2,23,51.8,46.8,51.8c11.7,0,26.6-4.1,39.6-22.1l-19.8-11.7
	c-15.3,22.5-41,11.3-43.7-11.7h64.4C535.3,285.9,512.4,263,487.2,263L487.2,263z M506.5,302.1h-40.1
	C471.4,278.7,502.5,277.4,506.5,302.1z"/>
</svg>
