<?xml version="1.0" encoding="utf-8"?>
<!-- Generator: Adobe Illustrator 19.0.0, SVG Export Plug-In . SVG Version: 6.00 Build 0)  -->
<svg version="1.1" id="Layer_1" xmlns="http://www.w3.org/2000/svg" xmlns:xlink="http://www.w3.org/1999/xlink" x="0px" y="0px"
	 viewBox="-243.6 324.7 442.2 145" style="enable-background:new -243.6 324.7 442.2 145;" xml:space="preserve">
<style type="text/css">
	.st0{fill:#F9B317;}
	.st1{fill:#22282C;}
</style>
<g>
	<path class="st0" d="M8.9,327.8l5,10.2l11.3,1.6c4.5,0.6,5.5,3.7,2.3,7l-8.1,7.9l1.9,11.2c0.8,4.5-1.9,6.3-5.8,4.2l-10-5.3l-10,5.3
		c-4,2.1-6.6,0.2-5.8-4.2l1.9-11.2l-8.1-7.9c-3.2-3.1-2.3-6.3,2.3-7l11.3-1.6l5-10.2C3.6,323.7,7,323.7,8.9,327.8"/>
	<g>
		<path class="st1" d="M36.1,447h5.5c4.5,0,7.4,2.3,7.4,6.3c0,4.4-3.2,6.6-7.9,6.6h-2.8v9.4h-2.3V447z M41.4,449h-3.1v9.1h2.9
			c3.4,0,5.5-1.5,5.5-4.5C46.8,450.4,44.8,449,41.4,449z"/>
		<path class="st1" d="M62.3,469.4l-0.3-2.1c-1.5,1.3-3.2,2.4-5.3,2.4c-2.6,0-4.5-1.5-4.5-4.2c0-3.6,2.9-5.3,9.9-6v-1
			c0-2.1-1.3-2.9-3.2-2.9c-1.8,0-3.6,0.5-5.3,1.3l-0.3-1.9c1.8-0.8,3.6-1.3,5.7-1.3c3.4,0,5.2,1.6,5.2,4.7v11
			C63.9,469.4,62.3,469.4,62.3,469.4z M61.8,461.3c-6,0.6-7.8,2.1-7.8,4.2c0,1.6,1.1,2.4,2.8,2.4c1.6,0,3.4-1,5-2.3L61.8,461.3
			L61.8,461.3z"/>
		<path class="st1" d="M71.1,459.7v9.7H69V454h1.6l0.5,3.1c1.1-1.8,2.9-3.4,5.5-3.4l0.3,1.9C74.3,455.9,72,457.7,71.1,459.7z"/>
		<path class="st1" d="M85,469.7c-2.4,0-4-1-4-3.7v-10.2h-2.4V454h2.4v-5.3l2.1-0.3v5.7h3.6l0.3,1.8H83v9.7c0,1.6,0.6,2.3,2.3,2.3
			c0.5,0,1.1-0.2,1.5-0.2l0.3,1.8C86.6,469.5,85.8,469.7,85,469.7z"/>
		<path class="st1" d="M104.4,469.7c-3.9,0-7-2.9-7-7.9s3.1-8.1,7-8.1c4,0,7,2.9,7,8.1C111.4,466.8,108.3,469.7,104.4,469.7z
			 M104.4,455.5c-2.9,0-4.7,2.3-4.7,6.2c0,3.7,1.9,6.2,4.7,6.2c2.9,0,4.7-2.3,4.7-6.2C109.1,457.9,107.3,455.5,104.4,455.5z"/>
		<path class="st1" d="M120.7,448.2c-1.5,0-2.3,0.6-2.3,2.4v3.6h3.1l0.3,1.8h-3.4v13.6h-2.1v-13.8h-2.3V454h2.3v-3.7
			c0-2.9,1.6-4,4.4-4c0.5,0,0.8,0,1.1,0l0.3,1.9C121.9,448.2,121.4,448.2,120.7,448.2z"/>
		<path class="st1" d="M146.3,462.1h-9.7l-2.8,7.3h-2.3l8.9-22.5h2.3l8.7,22.3l-2.3,0.5L146.3,462.1z M137.3,460.2h8.3l-4.2-10.7
			L137.3,460.2z"/>
		<path class="st1" d="M170.3,469.5h-1.9l-3.9-12.6l-3.7,12.6h-1.8l-5-15.4l2.1-0.3l3.9,12.9l3.9-12.6h1.9l3.9,12.6l3.7-12.6h2.1
			L170.3,469.5z"/>
		<path class="st1" d="M180.3,450.4c-0.8,0-1.6-0.6-1.6-1.6c0-0.8,0.6-1.6,1.6-1.6s1.5,0.6,1.5,1.6
			C181.8,449.6,181.1,450.4,180.3,450.4z M179.2,469.4V454h2.1v15.4H179.2z"/>
		<path class="st1" d="M196.7,469.4v-10.5c0-1.9-1-3.2-2.9-3.2c-1.6,0-3.2,1-5,2.6v11.2h-2.1V454h1.6l0.3,2.3
			c1.6-1.5,3.4-2.6,5.5-2.6c3.1,0,4.5,1.8,4.5,4.7v11C198.6,469.4,196.7,469.4,196.7,469.4z"/>
	</g>
	<g>
		<path class="st1" d="M-220.1,431.8c-7.4,0-13.1-1.6-17.2-4.7c-3.6-2.9-5.7-7-6.2-12.1l-0.2-1h4.9c1.5,0,2.8,1,3.2,2.4
			c0.6,2.4,2.1,4.4,4.5,5.8c2.8,1.6,6.3,2.3,10.8,2.3c9.2,0,13.8-2.8,13.8-8.4c0-1.8-0.8-3.2-2.3-4.2c-1.6-1.1-3.9-2.1-6.3-2.9
			c-2.6-0.8-5.5-1.5-8.4-2.1c-3.1-0.6-6-1.6-8.7-2.6c-2.8-1.1-5-2.6-6.8-4.4c-1.9-1.9-2.9-4.5-2.9-7.6c0-4.5,1.8-8.1,5.2-11
			c3.4-2.8,8.4-4.2,15.2-4.2c6.8,0,12.1,1.6,15.9,4.7c3.4,2.8,5.3,6.5,5.5,10.8v0.8h-5.2c-1.3,0-2.4-1-2.9-2.1
			c-0.8-3.1-3.2-5.2-7.4-6.3c-1.8-0.5-3.9-0.8-6.5-0.8c-2.6,0-4.7,0.3-6.5,0.8c-1.6,0.5-3.1,1.3-3.9,2.1l0,0
			c-0.8,0.8-1.5,1.6-1.8,2.4c-0.3,1-0.5,1.9-0.5,3.1c0,1,0.5,1.8,1.3,2.6c1,1,2.3,1.8,3.7,2.3c1.6,0.6,3.6,1.3,5.7,1.8
			c2.1,0.5,4.4,1.1,6.5,1.6c2.3,0.5,4.4,1.1,6.6,1.9c2.3,0.6,4.2,1.6,6,2.8c3.9,2.4,6,6,6,10.4c0,5.2-1.9,9.1-5.8,11.8
			C-208.3,430.5-213.5,431.8-220.1,431.8z"/>
	</g>
	<g>
		<path class="st1" d="M-153,431.3h-4.5c-1.6,0-2.9-1.3-2.9-2.9v-20.6c0-3.4-1-6.2-2.9-8.1c-1.9-1.9-4.4-2.9-7.3-2.9
			c-3.1,0-5.7,1-7.8,3.1c-2.1,2.1-3.2,4.7-3.2,8.1v23.5h-7.4v-56.8h7.4v20.4c1.1-1.3,2.4-2.3,3.9-3.2c2.1-1.5,4.7-2.1,7.4-2.1
			s5,0.3,7,1.1c1.9,0.8,3.7,1.9,5.2,3.6c3.4,3.4,5,7.8,5,13.1L-153,431.3L-153,431.3z"/>
	</g>
	<g>
		<path class="st1" d="M-124.3,431.8c-5.8,0-10.7-2.1-14.4-6.2c-3.6-4-5.3-9.1-5.3-14.9s1.8-10.8,5.3-14.9c3.7-4,8.7-6.2,14.7-6.2
			c5.3,0,9.5,1.8,12.8,5.5v-4.9h7.4v40.8h-7.4v-4.7C-114.3,430-118.8,431.8-124.3,431.8z M-123.5,396.7c-4,0-7.1,1.3-9.5,4
			c-2.3,2.6-3.4,6-3.4,10s1.1,7.3,3.4,10c2.4,2.8,5.7,4,9.5,4c4,0,7.1-1.3,9.4-4c2.3-2.6,3.4-6,3.4-10s-1.1-7.4-3.4-10
			C-116.5,398.2-119.6,396.7-123.5,396.7z"/>
	</g>
	<g>
		<path class="st1" d="M-84.2,431.3h-7.4v-41h7.4v6.6c1.6-2.6,3.9-4.5,7-6c1.8-0.8,4-1.3,6.6-1.3h1.1v4.7c0,1.5-1.1,2.8-2.6,2.9
			c-4.2,0.6-6.3,1.8-8.6,4.7c-2.3,2.9-3.6,7.4-3.6,12.1V431.3z"/>
	</g>
	<g>
		<path class="st1" d="M-44.8,431.8c-6.2,0-11.2-2.1-15.1-6.2c-3.7-3.9-5.7-8.9-5.7-14.9s1.8-11,5.3-14.9c3.9-4,8.7-6.2,14.9-6.2
			c6,0,11,2.1,14.9,6.2c3.6,3.9,5.3,8.9,5.3,14.9v3.2h-32.7c0.5,2.9,1.8,5.5,3.9,7.6c2.4,2.3,5.3,3.4,9.1,3.4c4.5,0,7.9-1.8,10-5.2
			c0.5-0.8,1.5-1.5,2.6-1.5h6.3l-0.5,1.1c-1.5,3.7-3.7,6.6-6.8,9.1C-36.1,430.7-40.1,431.8-44.8,431.8z M-57.6,406.9h24.8
			c-0.6-2.8-1.9-5.2-3.9-7c-2.3-2.1-5.2-3.1-8.6-3.1c-3.4,0-6.3,1.1-8.6,3.2C-55.7,401.7-57,404.2-57.6,406.9z"/>
	</g>
	<g>
		<path class="st1" d="M32.2,431.3h-6.3c-1.1,0-2.3-0.6-2.8-1.8l-5.5-13.3H-7l-5.5,13.3c-0.5,1.1-1.6,1.8-2.8,1.8h-6.3L0,380.7
			c0.6-1.8,2.4-2.8,4.2-2.8h2.4c1.8,0,3.6,1.1,4.2,2.8L32.2,431.3z M-4,409.2h18.8l-9.4-22.3L-4,409.2z"/>
	</g>
	<g>
		<path class="st1" d="M59.7,431.8c-7.4,0-13.1-1.6-17.2-4.7c-3.6-2.9-5.7-7-6.2-12.1l-0.2-1h4.9c1.5,0,2.8,1,3.2,2.4
			c0.6,2.4,2.1,4.4,4.5,5.8c2.8,1.6,6.3,2.3,10.8,2.3c9.2,0,13.8-2.8,13.8-8.4c0-1.8-0.8-3.2-2.3-4.2c-1.6-1.1-3.9-2.1-6.3-2.9
			c-2.6-0.8-5.5-1.5-8.4-2.1c-3.1-0.6-6-1.6-8.7-2.6c-2.8-1.1-5-2.6-6.8-4.4c-1.9-1.9-2.9-4.5-2.9-7.6c0-4.5,1.8-8.1,5.2-11
			c3.4-2.8,8.4-4.2,15.2-4.2c6.8,0,12.1,1.6,15.9,4.7c3.4,2.8,5.3,6.5,5.5,10.8v0.8h-5.2c-1.3,0-2.4-1-2.9-2.1
			c-0.8-3.1-3.2-5.2-7.4-6.3c-1.8-0.5-3.9-0.8-6.5-0.8s-4.7,0.3-6.5,0.8c-1.6,0.5-3.1,1.3-3.9,2.1l0,0c-0.8,0.8-1.5,1.6-1.8,2.4
			c-0.3,1-0.5,1.9-0.5,3.1c0,1,0.5,1.8,1.3,2.6c1,1,2.3,1.8,3.7,2.3c1.6,0.6,3.6,1.3,5.7,1.8c2.1,0.5,4.4,1.1,6.5,1.6
			c2.3,0.5,4.4,1.1,6.6,1.9c2.3,0.6,4.2,1.6,6,2.8c3.9,2.4,6,6,6,10.4c0,5.2-1.9,9.1-5.8,11.8C71.5,430.5,66.4,431.8,59.7,431.8z"/>
	</g>
	<g>
		<path class="st1" d="M108,431.8c-5.8,0-10.7-2.1-14.4-6.2c-3.6-4-5.3-9.1-5.3-14.9s1.8-10.8,5.3-14.9c3.7-4,8.7-6.2,14.7-6.2
			c5.3,0,9.5,1.8,12.8,5.5v-4.9h7.4v40.8h-7.4v-4.7C118,430,113.6,431.8,108,431.8z M108.8,396.7c-4,0-7.1,1.3-9.5,4
			c-2.3,2.6-3.4,6-3.4,10s1.1,7.3,3.4,10c2.4,2.8,5.7,4,9.5,4c4,0,7.1-1.3,9.4-4c2.3-2.6,3.4-6,3.4-10s-1.1-7.4-3.4-10
			S112.8,396.7,108.8,396.7z"/>
	</g>
	<g>
		<path class="st1" d="M148.3,431.3h-7.4v-56.7h7.4V431.3z"/>
	</g>
	<g>
		<path class="st1" d="M178.4,431.8c-6.2,0-11.2-2.1-15.1-6.2c-3.7-3.9-5.7-8.9-5.7-14.9s1.8-11,5.3-14.9c3.9-4,8.7-6.2,14.9-6.2
			c6,0,11,2.1,14.9,6.2c3.6,3.9,5.3,8.9,5.3,14.9v3.2h-32.7c0.5,3.1,1.8,5.5,3.9,7.4c2.3,2.3,5.3,3.4,9.1,3.4c4.5,0,7.9-1.8,10-5.2
			c0.5-0.8,1.5-1.5,2.6-1.5h6.3l-0.5,1.1c-1.5,3.7-3.7,6.6-6.8,9.1C187.1,430.7,183.2,431.8,178.4,431.8z M165.6,406.9h24.8
			c-0.6-2.8-1.9-5.2-3.9-7c-2.3-2.1-5.2-3.1-8.6-3.1c-3.4,0-6.3,1.1-8.6,3.1C167.5,401.7,166.2,404.2,165.6,406.9z"/>
	</g>
</g>
</svg>
